<svg width="25" height="24" viewBox="0 0 25 24" fill="none" xmlns="http://www.w3.org/2000/svg">
<g id="akar-icons:linkedin-fill">
<path id="Vector" fill-rule="evenodd" clip-rule="evenodd" d="M10.2681 8.969H13.9821V10.819C14.5171 9.755 15.8891 8.799 17.9501 8.799C21.9011 8.799 22.8391 10.917 22.8391 14.803V22H18.8391V15.688C18.8391 13.475 18.3041 12.227 16.9421 12.227C15.0531 12.227 14.2681 13.572 14.2681 15.687V22H10.2681V8.969ZM3.40911 21.83H7.40911V8.799H3.40911V21.83ZM7.98211 4.55C7.98226 4.88528 7.91577 5.21724 7.7865 5.52659C7.65723 5.83594 7.46776 6.11651 7.22911 6.352C6.74551 6.83262 6.09092 7.10165 5.40911 7.1C4.7285 7.09954 4.07542 6.8312 3.59111 6.353C3.35332 6.11671 3.1645 5.83582 3.03546 5.52643C2.90641 5.21704 2.83969 4.88522 2.83911 4.55C2.83911 3.873 3.10911 3.225 3.59211 2.747C4.076 2.26816 4.72935 1.9997 5.41011 2C6.09211 2 6.74611 2.269 7.22911 2.747C7.71111 3.225 7.98211 3.873 7.98211 4.55Z" fill="black"/>
</g>
</svg>
