<svg width="25" height="24" viewBox="0 0 25 24" fill="none" xmlns="http://www.w3.org/2000/svg">
<g id="facebook">
<g id="Vector">
<mask id="path-1-inside-1_3_453" fill="white">
<path d="M18.8386 2H15.8386C14.5125 2 13.2408 2.52678 12.3031 3.46447C11.3654 4.40215 10.8386 5.67392 10.8386 7V10H7.83862V14H10.8386V22H14.8386V14H17.8386L18.8386 10H14.8386V7C14.8386 6.73478 14.944 6.48043 15.1315 6.29289C15.3191 6.10536 15.5734 6 15.8386 6H18.8386V2Z"/>
</mask>
<path d="M18.8386 2H71.8386C71.8386 -27.2711 48.1097 -51 18.8386 -51V2ZM15.8386 2V-51V2ZM10.8386 7H-42.1614H10.8386ZM10.8386 10V63C40.1097 63 63.8386 39.2711 63.8386 10H10.8386ZM7.83862 10V-43C-21.4325 -43 -45.1614 -19.2711 -45.1614 10H7.83862ZM7.83862 14H-45.1614C-45.1614 43.2711 -21.4325 67 7.83862 67L7.83862 14ZM10.8386 14H63.8386C63.8386 -15.2711 40.1097 -39 10.8386 -39V14ZM10.8386 22H-42.1614C-42.1614 51.2711 -18.4325 75 10.8386 75V22ZM14.8386 22V75C44.1097 75 67.8386 51.2711 67.8386 22H14.8386ZM14.8386 14V-39C-14.4325 -39 -38.1614 -15.2711 -38.1614 14H14.8386ZM17.8386 14V67C42.1586 67 63.3577 50.4482 69.2562 26.8544L17.8386 14ZM18.8386 10L70.2562 22.8544C74.2145 7.02111 70.6574 -9.75288 60.6135 -22.6168C50.5696 -35.4808 35.1592 -43 18.8386 -43V10ZM14.8386 10H-38.1614C-38.1614 39.2711 -14.4325 63 14.8386 63V10ZM15.8386 6V59V6ZM18.8386 6V59C48.1097 59 71.8386 35.2711 71.8386 6H18.8386ZM18.8386 -51H15.8386V55H18.8386V-51ZM15.8386 -51C0.456067 -51 -14.2965 -44.8893 -25.1736 -34.0122L49.7797 40.9411C40.778 49.9429 28.569 55 15.8386 55V-51ZM-25.1736 -34.0122C-36.0507 -23.1351 -42.1614 -8.38256 -42.1614 7H63.8386C63.8386 19.7304 58.7815 31.9394 49.7797 40.9411L-25.1736 -34.0122ZM-42.1614 7V10H63.8386V7H-42.1614ZM10.8386 -43H7.83862V63H10.8386V-43ZM-45.1614 10V14H60.8386V10H-45.1614ZM7.83862 67H10.8386V-39H7.83862V67ZM-42.1614 14V22H63.8386V14H-42.1614ZM10.8386 75H14.8386V-31H10.8386V75ZM67.8386 22V14H-38.1614V22H67.8386ZM14.8386 67H17.8386V-39H14.8386V67ZM69.2562 26.8544L70.2562 22.8544L-32.5789 -2.85439L-33.5789 1.14561L69.2562 26.8544ZM18.8386 -43H14.8386V63H18.8386V-43ZM67.8386 10V7H-38.1614V10H67.8386ZM67.8386 7C67.8386 20.7913 62.36 34.0177 52.6082 43.7696L-22.3451 -31.1838C-32.4721 -21.0568 -38.1614 -7.32173 -38.1614 7H67.8386ZM52.6082 43.7696C42.8563 53.5214 29.6299 59 15.8386 59V-47C1.5169 -47 -12.2182 -41.3107 -22.3451 -31.1838L52.6082 43.7696ZM15.8386 59H18.8386V-47H15.8386V59ZM71.8386 6V2H-34.1614V6H71.8386Z" fill="black" mask="url(#path-1-inside-1_3_453)"/>
</g>
</g>
</svg>
