<svg width="24" height="24" viewBox="0 0 24 24" fill="none" xmlns="http://www.w3.org/2000/svg">
<g id="phone">
<g id="Vector">
<mask id="path-1-inside-1_3_328" fill="white">
<path d="M21.9999 16.9203V19.9203C22.0011 20.1988 21.944 20.4745 21.8324 20.7297C21.7209 20.9849 21.5572 21.2139 21.352 21.4022C21.1468 21.5905 20.9045 21.7338 20.6407 21.823C20.3769 21.9123 20.0973 21.9454 19.8199 21.9203C16.7428 21.586 13.7869 20.5345 11.1899 18.8503C8.77376 17.315 6.72527 15.2665 5.18993 12.8503C3.49991 10.2415 2.44818 7.27134 2.11993 4.18034C2.09494 3.90381 2.12781 3.6251 2.21643 3.36197C2.30506 3.09883 2.4475 2.85703 2.6347 2.65196C2.82189 2.44689 3.04974 2.28305 3.30372 2.17086C3.55771 2.05868 3.83227 2.0006 4.10993 2.00034H7.10993C7.59524 1.99556 8.06572 2.16742 8.43369 2.48387C8.80166 2.80033 9.04201 3.23979 9.10993 3.72034C9.23656 4.68041 9.47138 5.62307 9.80993 6.53034C9.94448 6.88827 9.9736 7.27726 9.89384 7.65122C9.81408 8.02519 9.6288 8.36845 9.35993 8.64034L8.08993 9.91034C9.51349 12.4139 11.5864 14.4868 14.0899 15.9103L15.3599 14.6403C15.6318 14.3715 15.9751 14.1862 16.3491 14.1064C16.723 14.0267 17.112 14.0558 17.4699 14.1903C18.3772 14.5289 19.3199 14.7637 20.2799 14.8903C20.7657 14.9589 21.2093 15.2035 21.5265 15.5778C21.8436 15.9521 22.0121 16.4299 21.9999 16.9203Z"/>
</mask>
<path d="M21.9999 16.9203L12.003 16.6723C12.001 16.755 11.9999 16.8376 11.9999 16.9203H21.9999ZM21.9999 19.9203H11.9999C11.9999 19.9339 12 19.9474 12 19.9609L21.9999 19.9203ZM19.8199 21.9203L18.7397 31.8618C18.7997 31.8683 18.8598 31.8743 18.9199 31.8798L19.8199 21.9203ZM11.1899 18.8503L16.6309 10.4601C16.6051 10.4434 16.5792 10.4267 16.5531 10.4102L11.1899 18.8503ZM5.18993 12.8503L13.6301 7.48713C13.6144 7.46246 13.5986 7.43787 13.5827 7.41335L5.18993 12.8503ZM2.11993 4.18034L-7.83948 5.08035C-7.83478 5.13238 -7.82967 5.18438 -7.82415 5.23634L2.11993 4.18034ZM4.10993 2.00034V-7.99966L4.10052 -7.99965L4.10993 2.00034ZM7.10993 2.00034V12.0003C7.14274 12.0003 7.17555 12.0002 7.20835 11.9999L7.10993 2.00034ZM9.10993 3.72034L19.0241 2.41277C19.02 2.3821 19.0158 2.35145 19.0115 2.32083L9.10993 3.72034ZM9.80993 6.53034L0.440961 10.0264C0.443769 10.0339 0.446585 10.0414 0.449411 10.049L9.80993 6.53034ZM9.35993 8.64034L16.431 15.7114C16.4442 15.6982 16.4573 15.685 16.4705 15.6717L9.35993 8.64034ZM8.08993 9.91034L1.01887 2.83927C-2.16426 6.0224 -2.82814 10.94 -0.603012 14.8533L8.08993 9.91034ZM14.0899 15.9103L9.14699 24.6033C13.0602 26.8284 17.9779 26.1645 21.161 22.9814L14.0899 15.9103ZM15.3599 14.6403L8.32854 7.52982C8.31528 7.54293 8.30205 7.55609 8.28887 7.56927L15.3599 14.6403ZM17.4699 14.1903L13.9513 23.5509C13.9588 23.5537 13.9664 23.5565 13.9739 23.5593L17.4699 14.1903ZM20.2799 14.8903L21.6769 4.98839C21.6471 4.98419 21.6173 4.98013 21.5875 4.9762L20.2799 14.8903ZM11.9999 16.9203V19.9203H31.9999V16.9203H11.9999ZM12 19.9609C11.9955 18.8469 12.2237 17.7443 12.67 16.7235L30.9949 24.7358C31.6643 23.2048 32.0066 21.5508 31.9999 19.8798L12 19.9609ZM12.67 16.7235C13.1163 15.7028 13.7708 14.7866 14.5917 14.0335L28.1123 28.7709C29.3436 27.6413 30.3255 26.2669 30.9949 24.7358L12.67 16.7235ZM14.5917 14.0335C15.4126 13.2804 16.3817 12.707 17.437 12.3501L23.8443 31.296C25.4273 30.7606 26.881 29.9006 28.1123 28.7709L14.5917 14.0335ZM17.437 12.3501C18.4923 11.9932 19.6105 11.8607 20.72 11.9609L18.9199 31.8798C20.5841 32.0302 22.2614 31.8313 23.8443 31.296L17.437 12.3501ZM20.9002 11.9789C19.3779 11.8135 17.9157 11.2933 16.6309 10.4601L5.74892 27.2405C9.6582 29.7757 14.1076 31.3585 18.7397 31.8618L20.9002 11.9789ZM16.5531 10.4102C15.376 9.66222 14.3781 8.66424 13.6301 7.48713L-3.2502 18.2136C-0.927517 21.8688 2.17148 24.9678 5.82672 27.2905L16.5531 10.4102ZM13.5827 7.41335C12.7467 6.12279 12.2264 4.65344 12.064 3.12435L-7.82415 5.23634C-7.33005 9.88923 -5.74687 14.3603 -3.20287 18.2873L13.5827 7.41335ZM12.0794 3.28034C12.1793 4.38647 12.0478 5.5013 11.6933 6.55384L-7.26048 0.170092C-7.79223 1.7489 -7.98942 3.42114 -7.83948 5.08035L12.0794 3.28034ZM11.6933 6.55384C11.3388 7.60638 10.7691 8.57358 10.0203 9.39385L-4.75089 -4.08993C-5.87406 -2.85952 -6.72873 -1.40872 -7.26048 0.170092L11.6933 6.55384ZM10.0203 9.39385C9.27151 10.2141 8.36014 10.8695 7.34419 11.3182L-0.736739 -6.97652C-2.26066 -6.3034 -3.62772 -5.32033 -4.75089 -4.08993L10.0203 9.39385ZM7.34419 11.3182C6.32824 11.767 5.22999 11.9993 4.11935 12.0003L4.10052 -7.99965C2.43456 -7.99809 0.78718 -7.64965 -0.736739 -6.97652L7.34419 11.3182ZM4.10993 12.0003H7.10993V-7.99966H4.10993V12.0003ZM7.20835 11.9999C5.26712 12.019 3.38518 11.3315 1.9133 10.0657L14.9541 -5.09798C12.7463 -6.9967 9.92336 -8.02783 7.01152 -7.99918L7.20835 11.9999ZM1.9133 10.0657C0.441421 8.79991 -0.51996 7.04207 -0.791651 5.11986L19.0115 2.32083C18.604 -0.562493 17.1619 -3.19925 14.9541 -5.09798L1.9133 10.0657ZM-0.804211 5.02792C-0.578971 6.7357 -0.161256 8.41252 0.440961 10.0264L19.1789 3.03429C19.104 2.83361 19.0521 2.62511 19.0241 2.41277L-0.804211 5.02792ZM0.449411 10.049C-0.0887623 8.61725 -0.205237 7.06129 0.113785 5.56543L19.6739 9.73701C20.1524 7.49322 19.9777 5.15928 19.1705 3.01173L0.449411 10.049ZM0.113785 5.56543C0.432809 4.06956 1.17396 2.6965 2.24941 1.60895L16.4705 15.6717C18.0836 14.0404 19.1954 11.9808 19.6739 9.73701L0.113785 5.56543ZM2.28887 1.56927L1.01887 2.83927L15.161 16.9814L16.431 15.7114L2.28887 1.56927ZM-0.603012 14.8533C1.71027 18.9215 5.07873 22.29 9.14699 24.6033L19.0329 7.2174C18.094 6.68356 17.3167 5.90623 16.7829 4.9674L-0.603012 14.8533ZM21.161 22.9814L22.431 21.7114L8.28887 7.56927L7.01887 8.83927L21.161 22.9814ZM22.3913 21.7509C21.3038 22.8263 19.9307 23.5675 18.4348 23.8865L14.2633 4.32638C12.0195 4.80492 9.95987 5.91665 8.32854 7.52982L22.3913 21.7509ZM18.4348 23.8865C16.939 24.2055 15.383 24.089 13.9513 23.5509L20.9885 4.82982C18.841 4.02256 16.5071 3.84785 14.2633 4.32638L18.4348 23.8865ZM13.9739 23.5593C15.5878 24.1615 17.2646 24.5792 18.9724 24.8045L21.5875 4.9762C21.3752 4.94819 21.1667 4.89625 20.966 4.82137L13.9739 23.5593ZM18.883 24.7923C16.94 24.5182 15.1654 23.5395 13.8969 22.0423L29.156 9.11336C27.2533 6.86762 24.5914 5.39957 21.6769 4.98839L18.883 24.7923ZM13.8969 22.0423C12.6283 20.5451 11.9543 18.634 12.003 16.6723L31.9969 17.1684C32.0699 14.2259 31.0588 11.3591 29.156 9.11336L13.8969 22.0423Z" fill="#1A1A1A" mask="url(#path-1-inside-1_3_328)"/>
</g>
</g>
</svg>
