<svg width="24" height="24" viewBox="0 0 24 24" fill="none" xmlns="http://www.w3.org/2000/svg">
<g id="phone">
<g id="Vector">
<mask id="path-1-inside-1_1_9" fill="white">
<path d="M22 16.9201V19.9201C22.0011 20.1986 21.9441 20.4743 21.8325 20.7294C21.7209 20.9846 21.5573 21.2137 21.3521 21.402C21.1469 21.5902 20.9046 21.7336 20.6407 21.8228C20.3769 21.912 20.0974 21.9452 19.82 21.9201C16.7428 21.5857 13.787 20.5342 11.19 18.8501C8.77382 17.3148 6.72533 15.2663 5.18999 12.8501C3.49997 10.2413 2.44824 7.27109 2.11999 4.1801C2.095 3.90356 2.12787 3.62486 2.21649 3.36172C2.30512 3.09859 2.44756 2.85679 2.63476 2.65172C2.82196 2.44665 3.0498 2.28281 3.30379 2.17062C3.55777 2.05843 3.83233 2.00036 4.10999 2.0001H7.10999C7.5953 1.99532 8.06579 2.16718 8.43376 2.48363C8.80173 2.80008 9.04207 3.23954 9.10999 3.7201C9.23662 4.68016 9.47144 5.62282 9.80999 6.5301C9.94454 6.88802 9.97366 7.27701 9.8939 7.65098C9.81415 8.02494 9.62886 8.36821 9.35999 8.6401L8.08999 9.9101C9.51355 12.4136 11.5864 14.4865 14.09 15.9101L15.36 14.6401C15.6319 14.3712 15.9751 14.1859 16.3491 14.1062C16.7231 14.0264 17.1121 14.0556 17.47 14.1901C18.3773 14.5286 19.3199 14.7635 20.28 14.8901C20.7658 14.9586 21.2094 15.2033 21.5265 15.5776C21.8437 15.9519 22.0122 16.4297 22 16.9201Z"/>
</mask>
<path d="M22 16.9201L12.0031 16.672C12.001 16.7547 12 16.8374 12 16.9201H22ZM22 19.9201H12C12 19.9336 12 19.9472 12.0001 19.9607L22 19.9201ZM19.82 21.9201L18.7398 31.8616C18.7998 31.8681 18.8598 31.8741 18.9199 31.8795L19.82 21.9201ZM11.19 18.8501L16.631 10.4599C16.6052 10.4431 16.5792 10.4265 16.5532 10.41L11.19 18.8501ZM5.18999 12.8501L13.6301 7.48688C13.6145 7.46222 13.5987 7.43763 13.5828 7.4131L5.18999 12.8501ZM2.11999 4.1801L-7.83942 5.0801C-7.83472 5.13214 -7.82961 5.18414 -7.82409 5.23609L2.11999 4.1801ZM4.10999 2.0001V-7.99991L4.10058 -7.9999L4.10999 2.0001ZM7.10999 2.0001V12.0001C7.1428 12.0001 7.17561 11.9999 7.20841 11.9996L7.10999 2.0001ZM9.10999 3.7201L19.0241 2.41252C19.0201 2.38186 19.0159 2.35121 19.0116 2.32058L9.10999 3.7201ZM9.80999 6.5301L0.441022 10.0261C0.44383 10.0337 0.446646 10.0412 0.449472 10.0487L9.80999 6.5301ZM9.35999 8.6401L16.4311 15.7112C16.4443 15.698 16.4574 15.6848 16.4705 15.6715L9.35999 8.6401ZM8.08999 9.9101L1.01893 2.83903C-2.1642 6.02216 -2.82808 10.9398 -0.602951 14.853L8.08999 9.9101ZM14.09 15.9101L9.14705 24.603C13.0603 26.8282 17.9779 26.1643 21.1611 22.9812L14.09 15.9101ZM15.36 14.6401L8.3286 7.52957C8.31534 7.54269 8.30211 7.55584 8.28893 7.56903L15.36 14.6401ZM17.47 14.1901L13.9514 23.5506C13.9589 23.5534 13.9664 23.5563 13.9739 23.5591L17.47 14.1901ZM20.28 14.8901L21.6769 4.98815C21.6472 4.98395 21.6174 4.97988 21.5876 4.97595L20.28 14.8901ZM12 16.9201V19.9201H32V16.9201H12ZM12.0001 19.9607C11.9956 18.8467 12.2237 17.744 12.67 16.7233L30.995 24.7356C31.6644 23.2045 32.0067 21.5505 31.9999 19.8795L12.0001 19.9607ZM12.67 16.7233C13.1163 15.7026 13.7709 14.7863 14.5918 14.0332L28.1124 28.7707C29.3437 27.641 30.3255 26.2667 30.995 24.7356L12.67 16.7233ZM14.5918 14.0332C15.4126 13.2801 16.3818 12.7068 17.4371 12.3499L23.8444 31.2957C25.4274 30.7604 26.8811 29.9003 28.1124 28.7707L14.5918 14.0332ZM17.4371 12.3499C18.4924 11.993 19.6106 11.8604 20.7201 11.9607L18.9199 31.8795C20.5841 32.0299 22.2614 31.8311 23.8444 31.2957L17.4371 12.3499ZM20.9002 11.9786C19.378 11.8132 17.9157 11.293 16.631 10.4599L5.74898 27.2403C9.65826 29.7754 14.1077 31.3583 18.7398 31.8616L20.9002 11.9786ZM16.5532 10.41C15.3761 9.66198 14.3781 8.66399 13.6301 7.48688L-3.25014 18.2133C-0.927456 21.8685 2.17154 24.9675 5.82678 27.2902L16.5532 10.41ZM13.5828 7.4131C12.7467 6.12254 12.2265 4.6532 12.0641 3.1241L-7.82409 5.23609C-7.32999 9.88898 -5.7468 14.3601 -3.2028 18.2871L13.5828 7.4131ZM12.0794 3.28009C12.1794 4.38623 12.0479 5.50106 11.6934 6.55359L-7.26042 0.169848C-7.79217 1.74866 -7.98936 3.4209 -7.83942 5.0801L12.0794 3.28009ZM11.6934 6.55359C11.3389 7.60614 10.7691 8.57334 10.0203 9.39361L-4.75083 -4.09017C-5.874 -2.85976 -6.72867 -1.40897 -7.26042 0.169848L11.6934 6.55359ZM10.0203 9.39361C9.27157 10.2139 8.3602 10.8693 7.34425 11.318L-0.736678 -6.97677C-2.2606 -6.30364 -3.62766 -5.32058 -4.75083 -4.09017L10.0203 9.39361ZM7.34425 11.318C6.3283 11.7668 5.23005 11.999 4.11941 12.0001L4.10058 -7.9999C2.43462 -7.99833 0.787241 -7.64989 -0.736678 -6.97677L7.34425 11.318ZM4.10999 12.0001H7.10999V-7.9999H4.10999V12.0001ZM7.20841 11.9996C5.26719 12.0187 3.38524 11.3313 1.91336 10.0655L14.9541 -5.09822C12.7463 -6.99695 9.92342 -8.02808 7.01158 -7.99942L7.20841 11.9996ZM1.91336 10.0655C0.441482 8.79966 -0.519899 7.04182 -0.791589 5.11961L19.0116 2.32058C18.604 -0.562737 17.162 -3.1995 14.9541 -5.09822L1.91336 10.0655ZM-0.80415 5.02767C-0.57891 6.73546 -0.161195 8.41228 0.441022 10.0261L19.179 3.03405C19.1041 2.83337 19.0521 2.62487 19.0241 2.41252L-0.80415 5.02767ZM0.449472 10.0487C-0.0887012 8.61701 -0.205176 7.06104 0.113846 5.56518L19.674 9.73677C20.1525 7.49298 19.9778 5.15903 19.1705 3.01149L0.449472 10.0487ZM0.113846 5.56518C0.432871 4.06931 1.17402 2.69626 2.24947 1.60871L16.4705 15.6715C18.0837 14.0402 19.1954 11.9806 19.674 9.73677L0.113846 5.56518ZM2.28893 1.56903L1.01893 2.83903L15.1611 16.9812L16.4311 15.7112L2.28893 1.56903ZM-0.602951 14.853C1.71033 18.9213 5.07879 22.2898 9.14705 24.603L19.0329 7.21715C18.0941 6.68332 17.3168 5.90598 16.7829 4.96715L-0.602951 14.853ZM21.1611 22.9812L22.4311 21.7112L8.28893 7.56903L7.01893 8.83903L21.1611 22.9812ZM22.3914 21.7506C21.3038 22.8261 19.9308 23.5672 18.4349 23.8862L14.2633 4.32614C12.0195 4.80467 9.95993 5.9164 8.3286 7.52957L22.3914 21.7506ZM18.4349 23.8862C16.939 24.2053 15.3831 24.0888 13.9514 23.5506L20.9886 4.82957C18.8411 4.02231 16.5071 3.8476 14.2633 4.32614L18.4349 23.8862ZM13.9739 23.5591C15.5878 24.1613 17.2646 24.579 18.9724 24.8042L21.5876 4.97595C21.3752 4.94795 21.1667 4.89601 20.966 4.82112L13.9739 23.5591ZM18.8831 24.792C16.94 24.5179 15.1655 23.5392 13.8969 22.0421L29.1561 9.11312C27.2533 6.86738 24.5915 5.39932 21.6769 4.98815L18.8831 24.792ZM13.8969 22.0421C12.6284 20.5449 11.9544 18.6337 12.0031 16.672L31.9969 17.1681C32.0699 14.2256 31.0589 11.3589 29.1561 9.11312L13.8969 22.0421Z" fill="white" mask="url(#path-1-inside-1_1_9)"/>
</g>
</g>
</svg>
